<svg width="70" height="32" viewBox="0 0 70 32" fill="none" xmlns="http://www.w3.org/2000/svg">
<rect width="70" height="32" fill="white"/>
<g clip-path="url(#clip0_2_206)">
<path fill-rule="evenodd" clip-rule="evenodd" d="M42.5285 20.9001L39.924 21.8517L39.6662 21.8388L39.4908 21.6518L38.1409 17.9811H31.8232L30.4874 21.6441L30.3133 21.8311L30.0554 21.8452L27.4549 20.8937L27.3427 20.8318L27.2641 20.7312L27.2305 20.6023L27.2473 20.4733L32.5052 6.60783C32.7169 6.12699 33.0639 5.71808 33.5039 5.43102C33.944 5.14397 34.458 4.99112 34.9833 4.99112C35.5087 4.99112 36.0227 5.14397 36.4627 5.43102C36.9027 5.71808 37.2498 6.12699 37.4614 6.60783L42.7361 20.4888L42.7529 20.6178L42.7194 20.7403L42.6407 20.8421L42.5285 20.9001ZM35.3985 10.1174L34.9846 8.9505V8.94153L32.6058 15.3727H37.3661L35.3985 10.1174ZM27.2434 24.4433H42.7567C43.0865 24.4538 43.3993 24.5926 43.6284 24.8301C43.8583 25.0687 43.9867 25.387 43.9867 25.7184C43.9867 26.0497 43.8583 26.3682 43.6284 26.6068C43.3999 26.8452 43.0868 26.9841 42.7567 26.9935H27.2434C26.9134 26.9841 26.6003 26.8452 26.3718 26.6068C26.1993 26.4295 26.082 26.206 26.0341 25.9633C25.9863 25.7207 26.01 25.4694 26.1023 25.2399C26.1946 25.0105 26.3516 24.8127 26.5542 24.6709C26.7568 24.529 26.9962 24.449 27.2434 24.4407V24.4433Z" fill="#FB0017"/>
</g>
<defs>
<clipPath id="clip0_2_206">
<rect width="17.9708" height="22" fill="white" transform="translate(26.0146 5)"/>
</clipPath>
</defs>
</svg>

