<svg width="58" height="66" viewBox="0 0 58 66" fill="none" xmlns="http://www.w3.org/2000/svg">
<path d="M33.6935 48.2115C38.1187 48.1079 42.1364 46.1314 45.1948 42.2821C45.7085 41.6373 45.9398 41.5063 46.5659 42.1869C50.1613 46.1145 53.7927 50.0125 57.4581 53.8746C58.097 54.5489 58.1076 54.9189 57.4263 55.5403C56.0998 56.7537 54.8348 58.0368 53.5911 59.3348C53.0605 59.8886 52.6678 59.9943 51.9972 59.506C50.4584 58.3835 48.8326 57.3794 47.2812 56.2739C46.7357 55.8849 46.3282 55.9335 45.7467 56.1935C44.0763 56.9461 42.3487 57.5654 40.6847 58.3285C40.2602 58.523 39.7891 59.0071 39.6872 59.4383C39.2542 61.2859 38.9295 63.1609 38.609 65.0359C38.4965 65.6954 38.2567 66.0083 37.5223 65.9998C34.587 65.966 31.6517 65.9702 28.7164 65.9977C28.0542 66.0041 27.808 65.7736 27.6977 65.1205C27.3772 63.2116 26.9527 61.3218 26.6174 59.4151C26.5049 58.783 26.2099 58.4977 25.6007 58.2715C23.8497 57.6246 22.1518 56.8383 20.4051 56.1808C20.023 56.0371 19.4224 56.0434 19.0955 56.2485C17.4252 57.3012 15.7994 58.4279 14.18 59.561C13.6643 59.9224 13.312 59.9541 12.8302 59.4637C10.7524 57.3519 8.64268 55.2719 6.51814 53.2024C6.0788 52.7733 6.04485 52.4477 6.40141 51.9446C7.54327 50.336 8.61508 48.6744 9.76968 47.0742C10.1644 46.5267 10.1008 46.1272 9.83759 45.5501C9.07777 43.8886 8.35615 42.2038 7.73853 40.4853C7.51143 39.8532 7.20793 39.5826 6.59455 39.4727C4.68014 39.1366 2.77633 38.7455 0.859797 38.4263C0.210339 38.327 -0.0061466 38.0585 0.000220628 37.399C0.0320568 34.4755 0.0341792 31.552 0.000220628 28.6285C-0.00826901 27.9626 0.227319 27.6984 0.868287 27.5863C2.7827 27.2545 4.68438 26.8549 6.59667 26.5167C7.21854 26.4068 7.52204 26.1278 7.74914 25.5042C8.37313 23.7877 9.08414 22.1008 9.85033 20.4414C10.1199 19.858 10.1644 19.4564 9.77604 18.9152C8.62358 17.3129 7.54751 15.6577 6.40353 14.049C6.04909 13.5481 6.08305 13.2289 6.52663 12.7976C8.62357 10.7535 10.712 8.69881 12.7495 6.59761C13.2971 6.0332 13.6749 6.06068 14.2607 6.47712C15.8143 7.57845 17.3806 8.67133 19 9.67119C19.38 9.90583 20.0528 9.92274 20.49 9.7642C22.2431 9.1237 23.9707 8.40498 25.675 7.64398C26.0464 7.4791 26.4667 7.05843 26.5516 6.68428C26.993 4.76487 27.3623 2.82644 27.6956 0.883781C27.8059 0.245389 28.0351 -0.00616323 28.7079 0.00017842C31.6432 0.0297728 34.5785 0.0318867 37.5138 0.00017842C38.2397 -0.00827711 38.4965 0.283439 38.609 0.95354C38.9252 2.82855 39.3221 4.68877 39.6341 6.56379C39.7402 7.20641 40.0374 7.49178 40.6529 7.71374C42.3105 8.31197 43.9638 8.94402 45.545 9.71558C46.3367 10.1024 46.8652 10.0432 47.5443 9.55281C49.0321 8.48108 50.5942 7.50658 52.0884 6.44329C52.6105 6.07125 52.9501 6.01418 53.4298 6.51094C54.8263 7.95895 56.2547 9.37525 57.7043 10.7683C58.1691 11.2143 58.0333 11.4807 57.6597 11.8823C53.9031 15.9029 50.1528 19.9256 46.4322 23.9801C45.8358 24.6311 45.6172 24.2506 45.2585 23.794C41.037 18.4015 34.1498 16.4272 27.7677 18.7672C21.0545 21.2299 16.814 28.4805 18.0577 35.3802C19.4203 42.9437 25.6368 48.22 33.6914 48.2157L33.6935 48.2115Z" fill="#FF7047"/>
</svg>
