<svg width="32" height="32" viewBox="0 0 32 32" fill="none" xmlns="http://www.w3.org/2000/svg">
<rect width="32" height="32" fill="#005FF9"/>
<path d="M19.9106 16C19.9095 17.0368 19.4971 18.0309 18.764 18.764C18.0309 19.4971 17.0368 19.9095 16 19.9106C14.9632 19.9095 13.9691 19.4971 13.236 18.764C12.5029 18.0309 12.0905 17.0368 12.0894 16C12.0905 14.9632 12.5029 13.9691 13.236 13.236C13.9691 12.5029 14.9632 12.0905 16 12.0894C17.0368 12.0905 18.0309 12.5029 18.764 13.236C19.4971 13.9691 19.9095 14.9632 19.9106 16ZM16 3C8.83213 3 3 8.83213 3 16C3 23.1679 8.83213 29 16 29C18.626 29 21.1586 28.2184 23.3231 26.7388L23.3604 26.7128L21.6087 24.6767L21.5794 24.6962C19.9157 25.7672 17.9786 26.3362 16 26.335C10.3011 26.335 5.665 21.6989 5.665 16C5.665 10.3011 10.3011 5.665 16 5.665C21.6989 5.665 26.335 10.3011 26.335 16C26.335 16.7386 26.2529 17.4861 26.0912 18.2214C25.7646 19.5628 24.8254 19.9739 24.1201 19.9195C23.4108 19.8618 22.5813 19.3564 22.5756 18.1198V16C22.5756 12.3738 19.6262 9.42444 16 9.42444C12.3738 9.42444 9.42444 12.3738 9.42444 16C9.42444 19.6262 12.3738 22.5756 16 22.5756C16.8665 22.5776 17.7248 22.407 18.5247 22.0738C19.3246 21.7405 20.0501 21.2512 20.6589 20.6345C21.012 21.1883 21.4894 21.6521 22.0531 21.989C22.6169 22.326 23.2515 22.5268 23.9064 22.5756C24.9762 22.6589 26.0393 22.3473 26.8948 21.6997C27.674 21.1082 28.2557 20.2526 28.5775 19.2248C28.6287 19.0591 28.7229 18.6788 28.7237 18.6764L28.7262 18.6626C28.9155 17.8379 29 17.0156 29 16C29 8.83213 23.1679 3 16 3Z" fill="#FF9E00"/>
</svg>

