<svg width="70" height="32" viewBox="0 0 70 32" fill="none" xmlns="http://www.w3.org/2000/svg">
<rect width="70" height="32" fill="white"/>
<g clip-path="url(#clip0_2_208)">
<path fill-rule="evenodd" clip-rule="evenodd" d="M38.1152 21.6841V14.9308H37.8298L35.4651 20.5967C35.3208 20.9202 35.0858 21.195 34.7887 21.388C34.4916 21.581 34.145 21.6838 33.7907 21.6841H30.6163V10.3133H34.3878V17.0654H34.6869L37.0755 11.3932L37.0944 11.3504C37.2447 11.0408 37.479 10.7797 37.7707 10.5969C38.0624 10.4142 38.3996 10.3172 38.7438 10.317H41.918V21.6841H38.1177H38.1152ZM24.3269 14.9308H24.0201L21.8327 21.6841H19.2279L17.0455 14.9308H16.7413V21.6841H13V10.3133H16.7413C17.2033 10.3078 17.6549 10.4501 18.0303 10.7195C18.4058 10.9888 18.6853 11.3711 18.8281 11.8105L20.3656 17.0666H20.6887L22.2287 11.8105C22.3726 11.3695 22.6539 10.9863 23.0315 10.7169C23.4091 10.4474 23.8631 10.3059 24.3269 10.3133H28.0681V21.6841H24.3269V14.9308ZM55.1948 17.2854C54.4303 17.7409 53.5479 17.9597 52.6591 17.914H48.2239V21.6854H44.4524V15.3594H56.9648C56.577 16.1612 55.9613 16.8307 55.1948 17.2841V17.2854Z" fill="#52B460"/>
<path fill-rule="evenodd" clip-rule="evenodd" d="M56.8982 14.1099H50.0946C46.9869 14.1099 44.4023 12.4668 43.8579 10.3108H52.6868C55.0628 10.3108 56.9888 11.7226 56.9888 13.4624C56.9889 13.6814 56.9584 13.8993 56.8982 14.1099Z" fill="#1BA1D7"/>
</g>
<defs>
<clipPath id="clip0_2_208">
<rect width="44" height="11.3533" fill="white" transform="translate(13 10.3234)"/>
</clipPath>
</defs>
</svg>

