<svg width="32" height="32" viewBox="0 0 32 32" fill="none" xmlns="http://www.w3.org/2000/svg">
<rect width="32" height="32" fill="#FF8800"/>
<path fill-rule="evenodd" clip-rule="evenodd" d="M22.4194 10.4086C22.4194 13.6965 19.5336 16.371 15.9836 16.371C12.4344 16.371 9.54791 13.6965 9.54791 10.4086C9.54791 7.11966 12.4344 4.44444 15.9836 4.44444C19.5336 4.44444 22.4194 7.11966 22.4194 10.4086ZM18.6484 10.4086C18.6484 9.04694 17.4531 7.93967 15.9837 7.93967C14.5154 7.93967 13.3189 9.04694 13.3189 10.4086C13.3189 11.7693 14.5154 12.8772 15.9837 12.8772C17.4531 12.8772 18.6484 11.7693 18.6484 10.4086Z" fill="white"/>
<path d="M22.3411 19.8046C21.1774 20.4819 19.914 20.9622 18.604 21.2388L22.2017 24.5731C22.9387 25.2546 22.9387 26.3615 22.2017 27.0438C21.4654 27.7261 20.2721 27.7261 19.5366 27.0438L15.9993 23.7673L12.4651 27.0438C12.0966 27.3846 11.6137 27.5552 11.1309 27.5552C10.6487 27.5552 10.1666 27.3846 9.79812 27.0438C9.06186 26.3615 9.06186 25.2553 9.79735 24.5731L13.3955 21.2388C12.0855 20.9622 10.822 20.4812 9.65834 19.8046C8.77767 19.2901 8.51313 18.2121 9.06802 17.3953C9.62137 16.5774 10.7851 16.3312 11.6673 16.8457C14.3019 18.3816 17.696 18.3819 20.3322 16.8457C21.2144 16.3312 22.3777 16.5774 22.9322 17.3953C23.4871 18.2114 23.2218 19.2901 22.3411 19.8046Z" fill="white"/>
</svg>

