<svg width="70" height="32" viewBox="0 0 70 32" fill="none" xmlns="http://www.w3.org/2000/svg">
<rect width="70" height="32" fill="white"/>
<g clip-path="url(#clip0_2_202)">
<path fill-rule="evenodd" clip-rule="evenodd" d="M45.8052 14.0208L43.667 15.693V15.7306C43.667 15.8172 43.667 15.9038 43.667 15.9903C43.6652 17.4457 43.2924 18.8766 42.5838 20.1478C41.8752 21.4191 40.8543 22.4887 39.6174 23.2557C40.0333 23.909 40.355 24.6177 40.5731 25.3608C42.2155 24.4085 43.5792 23.0419 44.528 21.3976C45.4769 19.7533 45.9778 17.8888 45.9806 15.9903V15.9732V15.955C45.9782 15.3054 45.9179 14.6574 45.8006 14.0185" fill="#62BC70"/>
<path fill-rule="evenodd" clip-rule="evenodd" d="M30.1023 23.0803C29.7629 23.7736 29.3067 24.4032 28.7535 24.9416C30.4838 26.1206 32.5126 26.7856 34.6051 26.8598C36.6975 26.934 38.7683 26.4143 40.5777 25.3608C40.3596 24.6177 40.0378 23.909 39.622 23.2557C38.1875 24.1483 36.5255 24.6067 34.8362 24.5756C33.147 24.5445 31.5029 24.0251 30.1023 23.0803Z" fill="#9EF966"/>
<path fill-rule="evenodd" clip-rule="evenodd" d="M24.3018 13.4854C23.7943 15.6211 23.9484 17.8606 24.7435 19.9068C25.5386 21.9529 26.9371 23.7089 28.7535 24.9416C29.3066 24.4032 29.7629 23.7736 30.1023 23.0803C28.6521 22.1063 27.5354 20.7112 26.9026 19.083C26.2697 17.4548 26.1512 15.6717 26.563 13.9741C25.8428 13.6829 25.078 13.5176 24.3018 13.4854Z" fill="#E7FB5C"/>
<path fill-rule="evenodd" clip-rule="evenodd" d="M30.8542 5.90788C29.2378 6.55711 27.7999 7.58302 26.6602 8.90025C25.5205 10.2175 24.712 11.7879 24.3019 13.4808C25.078 13.513 25.8429 13.6783 26.563 13.9695C26.9162 12.5424 27.6277 11.229 28.6301 10.1535C29.6326 9.07813 30.8929 8.27628 32.2917 7.82391C31.9068 7.11962 31.4227 6.47434 30.8542 5.90788Z" fill="#5AEEEF"/>
<path fill-rule="evenodd" clip-rule="evenodd" d="M34.9971 5.11051C33.5777 5.10813 32.1712 5.37886 30.8541 5.90791C31.4227 6.47437 31.9068 7.11965 32.2917 7.82393C33.5327 7.42258 34.8477 7.3031 36.1408 7.47414C37.4339 7.64519 38.6726 8.10244 39.7666 8.81267L41.6553 7.33182C39.738 5.88392 37.3997 5.10298 34.9971 5.10821" fill="#49ABD9"/>
<path fill-rule="evenodd" clip-rule="evenodd" d="M34.9971 18.8519L44.8847 11.2391C44.548 10.5562 44.141 9.91022 43.6704 9.31166L34.9971 15.9904V15.9902L30.9486 13.4841V16.3319V16.3387L34.9971 18.8517V18.8519Z" fill="#23A136"/>
</g>
<defs>
<clipPath id="clip0_2_202">
<rect width="22" height="21.7494" fill="white" transform="translate(24 5.12531)"/>
</clipPath>
</defs>
</svg>

