<svg width="32" height="32" viewBox="0 0 32 32" fill="none" xmlns="http://www.w3.org/2000/svg">
<rect width="32" height="32" fill="#2EA8E3"/>
<path d="M3.99788 15.8495C6.18278 14.6491 8.62171 13.6472 10.9005 12.6402C14.821 10.9908 18.757 9.36993 22.7328 7.86096C23.5063 7.60386 24.8962 7.35246 25.0324 8.49584C24.9578 10.1143 24.6508 11.7234 24.4403 13.3324C23.9058 16.8708 23.2881 20.397 22.6857 23.9238C22.4781 25.0985 21.0028 25.7066 20.0588 24.9549C17.7901 23.4264 15.5039 21.9127 13.2642 20.3487C12.5305 19.6051 13.2109 18.5373 13.8661 18.0062C15.7347 16.1695 17.7163 14.6089 19.4872 12.6772C19.9649 11.5266 18.5535 12.4963 18.0879 12.7935C15.5298 14.5518 13.0344 16.4174 10.3374 17.9628C8.95972 18.7192 7.35407 18.0728 5.97706 17.6507C4.74242 17.1408 2.93318 16.6271 3.99775 15.8497L3.99788 15.8495Z" fill="white"/>
</svg>

