<svg width="32" height="32" viewBox="0 0 32 32" fill="none" xmlns="http://www.w3.org/2000/svg">
<rect width="32" height="32" fill="#0077FF"/>
<path d="M17.1612 25.0014C8.27795 25.0014 3.21112 18.9114 3 8.77778H7.44972C7.59588 16.2156 10.8763 19.3662 13.4747 20.0158V8.77778H17.6646V15.1925C20.2305 14.9164 22.9263 11.9933 23.8357 8.77778H28.0256C27.6829 10.4454 26.9998 12.0244 26.019 13.416C25.0382 14.8076 23.7808 15.9818 22.3254 16.8652C23.9499 17.6724 25.3848 18.815 26.5353 20.2174C27.6859 21.6199 28.5259 23.2504 29 25.0014H24.3879C23.9623 23.4806 23.0973 22.1192 21.9013 21.0878C20.7053 20.0565 19.2315 19.4011 17.6646 19.2038V25.0014H17.1612V25.0014Z" fill="white"/>
</svg>

