<svg width="32" height="32" viewBox="0 0 32 32" fill="none" xmlns="http://www.w3.org/2000/svg">
<rect width="32" height="32" fill="#5ECD77"/>
<path d="M11.0119 23.6081L11.3489 23.8069C12.7646 24.6433 14.3877 25.0857 16.0429 25.0866H16.0465C21.1299 25.0866 25.2671 20.9687 25.269 15.9077C25.2698 13.455 24.3115 11.1489 22.5702 9.41384C20.8288 7.67908 18.5136 6.72305 16.0498 6.72203C10.9627 6.72203 6.82548 10.8392 6.82356 15.9002C6.82289 17.6345 7.3102 19.3236 8.23353 20.7848L8.453 21.1322L7.52109 24.5192L11.0119 23.6081ZM4.85715 27.1429L6.4313 21.4205C5.46034 19.7457 4.94955 17.8459 4.95035 15.8997C4.95272 9.81084 9.93003 4.85715 16.0468 4.85715C19.0149 4.85843 21.8008 6.00844 23.8958 8.09582C25.9906 10.1832 27.1438 12.9578 27.1429 15.9086C27.1403 21.9972 22.1619 26.9518 16.0468 26.9518C16.047 26.9518 16.0463 26.9518 16.0468 26.9518H16.042C14.185 26.9512 12.3603 26.4874 10.7396 25.6074L4.85715 27.1429Z" fill="white"/>
<path fill-rule="evenodd" clip-rule="evenodd" d="M13.2731 11.2854C13.0654 10.8257 12.8468 10.8165 12.6493 10.8084C12.4876 10.8016 12.3027 10.802 12.1179 10.802C11.933 10.802 11.6326 10.8711 11.3787 11.1473C11.1244 11.4235 10.4082 12.0912 10.4082 13.4492C10.4082 14.8073 11.4018 16.1196 11.5402 16.3039C11.6789 16.4879 13.4583 19.3638 16.2762 20.4701C18.6183 21.3896 19.0949 21.2067 19.6032 21.1606C20.1116 21.1147 21.2436 20.4932 21.4746 19.8486C21.7057 19.2042 21.7057 18.6517 21.6364 18.5364C21.5671 18.4213 21.3822 18.3523 21.1049 18.2143C20.8276 18.0763 19.4645 17.4085 19.2105 17.3163C18.9562 17.2243 18.7714 17.1784 18.5865 17.4547C18.4017 17.7307 17.8707 18.3523 17.7088 18.5364C17.5472 18.7208 17.3854 18.7439 17.1081 18.6058C16.8308 18.4673 15.9378 18.1761 14.8785 17.2359C14.0543 16.5043 13.4979 15.6008 13.336 15.3245C13.1744 15.0485 13.3188 14.8989 13.4578 14.7613C13.5824 14.6376 13.7351 14.439 13.8738 14.278C14.0121 14.1168 14.0583 14.0017 14.1507 13.8176C14.2432 13.6334 14.197 13.4722 14.1277 13.3341C14.0583 13.1961 13.5197 11.8312 13.2731 11.2854Z" fill="white"/>
</svg>

